<?xml version="1.0" encoding="utf-8"?>
<!-- Generator: Adobe Illustrator 22.1.0, SVG Export Plug-In . SVG Version: 6.00 Build 0)  -->
<svg version="1.1" id="Layer_1" xmlns="http://www.w3.org/2000/svg" xmlns:xlink="http://www.w3.org/1999/xlink" x="0px" y="0px"
	 viewBox="0 0 400 400" style="enable-background:new 0 0 400 400;" xml:space="preserve">
<style type="text/css">
	.st0{fill:#06F417;stroke:#000000;stroke-miterlimit:10;}
	.st1{fill:#ECD9B9;stroke:#000000;stroke-miterlimit:10;}
	.st2{fill:#ECD9B9;}
	.st3{fill:#AE8968;}
</style>
<rect x="-2.5" y="-2.5" class="st0" width="407" height="407"/>
<rect x="-6.1" y="-10.7" class="st1" width="410.6" height="415.2"/>
<rect class="st2" width="50" height="50"/>
<rect x="50" class="st3" width="50" height="50"/>
<rect y="50" class="st3" width="50" height="50"/>
<rect x="100" y="50" class="st3" width="50" height="50"/>
<rect x="50" y="100" class="st3" width="50" height="50"/>
<rect x="150" class="st3" width="50" height="50"/>
<rect y="150" class="st3" width="50" height="50"/>
<rect x="150" y="100" class="st3" width="50" height="50"/>
<rect x="100" y="150" class="st3" width="50" height="50"/>
<rect x="200" y="50" class="st3" width="50" height="50"/>
<rect x="250" class="st3" width="50" height="50"/>
<rect x="50" y="200" class="st3" width="50" height="50"/>
<rect y="250" class="st3" width="50" height="50"/>
<rect x="100" y="250" class="st3" width="50" height="50"/>
<rect x="50" y="300" class="st3" width="50" height="50"/>
<rect x="250" y="100" class="st3" width="50" height="50"/>
<rect x="300" y="50" class="st3" width="50" height="50"/>
<rect x="350" class="st3" width="50" height="50"/>
<rect x="350" y="100" class="st3" width="50" height="50"/>
<rect x="200" y="150" class="st3" width="50" height="50"/>
<rect x="150" y="200" class="st3" width="50" height="50"/>
<rect x="300" y="150" class="st3" width="50" height="50"/>
<rect y="350" class="st3" width="50" height="50"/>
<rect x="100" y="350" class="st3" width="50" height="50"/>
<rect x="150" y="300" class="st3" width="50" height="50"/>
<rect x="200" y="250" class="st3" width="50" height="50"/>
<rect x="250" y="200" class="st3" width="50" height="50"/>
<rect x="200" y="350" class="st3" width="50" height="50"/>
<rect x="250" y="300" class="st3" width="50" height="50"/>
<rect x="300" y="250" class="st3" width="50" height="50"/>
<rect x="300" y="350" class="st3" width="50" height="50"/>
<rect x="350" y="300" class="st3" width="50" height="50"/>
<rect x="350" y="200" class="st3" width="50" height="50"/>
</svg>
